<svg width="40" height="38" viewBox="0 0 40 38" fill="none" xmlns="http://www.w3.org/2000/svg">
<path d="M6.92879 35V27.97H8.28879V35H6.92879ZM11.3388 35V27.97H12.6988V35H11.3388ZM7.78879 31.97V30.77H11.7188V31.97H7.78879ZM16.4658 35.1C15.9792 35.1 15.5392 34.99 15.1458 34.77C14.7592 34.5433 14.4492 34.24 14.2158 33.86C13.9892 33.4733 13.8758 33.0433 13.8758 32.57C13.8758 32.0967 13.9892 31.6733 14.2158 31.3C14.4425 30.92 14.7525 30.62 15.1458 30.4C15.5392 30.1733 15.9758 30.06 16.4558 30.06C16.9492 30.06 17.3892 30.1733 17.7758 30.4C18.1692 30.62 18.4792 30.92 18.7058 31.3C18.9325 31.6733 19.0458 32.0967 19.0458 32.57C19.0458 33.0433 18.9325 33.4733 18.7058 33.86C18.4792 34.24 18.1692 34.5433 17.7758 34.77C17.3892 34.99 16.9525 35.1 16.4658 35.1ZM16.4558 33.88C16.7025 33.88 16.9192 33.8267 17.1058 33.72C17.2992 33.6067 17.4458 33.4533 17.5458 33.26C17.6525 33.06 17.7058 32.8333 17.7058 32.58C17.7058 32.3267 17.6525 32.1033 17.5458 31.91C17.4392 31.7167 17.2925 31.5667 17.1058 31.46C16.9192 31.3467 16.7025 31.29 16.4558 31.29C16.2158 31.29 16.0025 31.3467 15.8158 31.46C15.6292 31.5667 15.4825 31.7167 15.3758 31.91C15.2692 32.1033 15.2158 32.3267 15.2158 32.58C15.2158 32.8333 15.2692 33.06 15.3758 33.26C15.4825 33.4533 15.6292 33.6067 15.8158 33.72C16.0025 33.8267 16.2158 33.88 16.4558 33.88ZM20.0892 35V30.17H21.3992V35H20.0892ZM23.2392 35V32.15C23.2392 31.87 23.1492 31.6533 22.9692 31.5C22.7958 31.34 22.5792 31.26 22.3192 31.26C22.1458 31.26 21.9892 31.2967 21.8492 31.37C21.7092 31.4367 21.5992 31.5367 21.5192 31.67C21.4392 31.8033 21.3992 31.9633 21.3992 32.15L20.8892 31.9C20.8892 31.5267 20.9692 31.2033 21.1292 30.93C21.2958 30.6567 21.5192 30.4467 21.7992 30.3C22.0792 30.1467 22.3958 30.07 22.7492 30.07C23.0825 30.07 23.3858 30.1467 23.6592 30.3C23.9325 30.4467 24.1492 30.6567 24.3092 30.93C24.4692 31.1967 24.5492 31.52 24.5492 31.9V35H23.2392ZM26.3892 35V32.15C26.3892 31.87 26.2992 31.6533 26.1192 31.5C25.9458 31.34 25.7292 31.26 25.4692 31.26C25.3025 31.26 25.1458 31.2967 24.9992 31.37C24.8592 31.4367 24.7492 31.5367 24.6692 31.67C24.5892 31.8033 24.5492 31.9633 24.5492 32.15L23.7992 31.97C23.8258 31.5833 23.9292 31.25 24.1092 30.97C24.2892 30.6833 24.5258 30.4633 24.8192 30.31C25.1125 30.15 25.4392 30.07 25.7992 30.07C26.1592 30.07 26.4825 30.1467 26.7692 30.3C27.0558 30.4467 27.2825 30.66 27.4492 30.94C27.6158 31.22 27.6992 31.5533 27.6992 31.94V35H26.3892ZM31.2711 35.1C30.7644 35.1 30.3144 34.9933 29.9211 34.78C29.5277 34.56 29.2144 34.26 28.9811 33.88C28.7544 33.5 28.6411 33.0667 28.6411 32.58C28.6411 32.1 28.7511 31.6733 28.9711 31.3C29.1977 30.92 29.5044 30.62 29.8911 30.4C30.2777 30.1733 30.7077 30.06 31.1811 30.06C31.6477 30.06 32.0577 30.1667 32.4111 30.38C32.7711 30.5867 33.0511 30.8733 33.2511 31.24C33.4577 31.6 33.5611 32.01 33.5611 32.47C33.5611 32.5567 33.5544 32.6467 33.5411 32.74C33.5344 32.8267 33.5177 32.9267 33.4911 33.04L29.4311 33.05V32.07L32.8811 32.06L32.3511 32.47C32.3377 32.1833 32.2844 31.9433 32.1911 31.75C32.1044 31.5567 31.9744 31.41 31.8011 31.31C31.6344 31.2033 31.4277 31.15 31.1811 31.15C30.9211 31.15 30.6944 31.21 30.5011 31.33C30.3077 31.4433 30.1577 31.6067 30.0511 31.82C29.9511 32.0267 29.9011 32.2733 29.9011 32.56C29.9011 32.8533 29.9544 33.11 30.0611 33.33C30.1744 33.5433 30.3344 33.71 30.5411 33.83C30.7477 33.9433 30.9877 34 31.2611 34C31.5077 34 31.7311 33.96 31.9311 33.88C32.1311 33.7933 32.3044 33.6667 32.4511 33.5L33.2211 34.27C32.9877 34.5433 32.7011 34.75 32.3611 34.89C32.0277 35.03 31.6644 35.1 31.2711 35.1Z" fill="#85736D"/>
<path d="M27 22.0001H13C12.4477 22.0001 12 21.5524 12 21.0001V13.0001H10L19.292 3.70711C19.4796 3.51933 19.7341 3.41382 19.9995 3.41382C20.2649 3.41382 20.5194 3.51933 20.707 3.70711L30 13.0001H28V21.0001C28 21.5524 27.5523 22.0001 27 22.0001ZM18 15.0001H22V20.0001H26V11.8281L20 5.8281L14 11.8281V20.0001H18V15.0001Z" fill="#2E3A59"/>
</svg>
