<svg width="46" height="38" viewBox="0 0 46 38" fill="none" xmlns="http://www.w3.org/2000/svg">
<path d="M4.73773 35.1C4.17107 35.1 3.6844 35.0033 3.27773 34.81C2.87773 34.6167 2.5144 34.3267 2.18773 33.94L3.08773 33.04C3.2944 33.3133 3.5344 33.5267 3.80773 33.68C4.08107 33.8267 4.4144 33.9 4.80773 33.9C5.16107 33.9 5.44107 33.83 5.64773 33.69C5.86107 33.55 5.96773 33.3567 5.96773 33.11C5.96773 32.8967 5.90773 32.7233 5.78773 32.59C5.66773 32.4567 5.50773 32.3433 5.30773 32.25C5.1144 32.1567 4.89773 32.0733 4.65773 32C4.4244 31.92 4.18773 31.83 3.94773 31.73C3.7144 31.63 3.49773 31.5067 3.29773 31.36C3.1044 31.2067 2.94773 31.0133 2.82773 30.78C2.70773 30.54 2.64773 30.24 2.64773 29.88C2.64773 29.4533 2.75107 29.09 2.95773 28.79C3.1644 28.49 3.44773 28.26 3.80773 28.1C4.16773 27.94 4.5744 27.86 5.02773 27.86C5.50773 27.86 5.94107 27.95 6.32773 28.13C6.7144 28.31 7.03107 28.5433 7.27773 28.83L6.37773 29.73C6.17107 29.5033 5.95773 29.3367 5.73773 29.23C5.5244 29.1233 5.28107 29.07 5.00773 29.07C4.6944 29.07 4.44773 29.13 4.26773 29.25C4.08773 29.37 3.99773 29.5433 3.99773 29.77C3.99773 29.9633 4.05773 30.12 4.17773 30.24C4.29773 30.36 4.4544 30.4633 4.64773 30.55C4.84773 30.6367 5.0644 30.72 5.29773 30.8C5.53773 30.88 5.7744 30.97 6.00773 31.07C6.24773 31.17 6.4644 31.3 6.65773 31.46C6.85773 31.62 7.01773 31.8267 7.13773 32.08C7.25773 32.3267 7.31773 32.6333 7.31773 33C7.31773 33.6533 7.08773 34.1667 6.62773 34.54C6.16773 34.9133 5.53773 35.1 4.73773 35.1ZM10.692 35.1C10.1987 35.1 9.75536 34.99 9.36203 34.77C8.9687 34.55 8.6587 34.25 8.43203 33.87C8.20536 33.49 8.09203 33.0633 8.09203 32.59C8.09203 32.11 8.20536 31.68 8.43203 31.3C8.6587 30.92 8.9687 30.62 9.36203 30.4C9.76203 30.1733 10.2054 30.06 10.692 30.06C11.072 30.06 11.422 30.13 11.742 30.27C12.062 30.41 12.3387 30.61 12.572 30.87L11.732 31.72C11.6054 31.58 11.452 31.4733 11.272 31.4C11.0987 31.3267 10.9054 31.29 10.692 31.29C10.452 31.29 10.2354 31.3467 10.042 31.46C9.85536 31.5667 9.70536 31.7167 9.59203 31.91C9.48536 32.0967 9.43203 32.32 9.43203 32.58C9.43203 32.8333 9.48536 33.06 9.59203 33.26C9.70536 33.4533 9.85536 33.6067 10.042 33.72C10.2354 33.8267 10.452 33.88 10.692 33.88C10.912 33.88 11.1087 33.8433 11.282 33.77C11.462 33.69 11.6154 33.5767 11.742 33.43L12.592 34.28C12.3454 34.5467 12.062 34.75 11.742 34.89C11.422 35.03 11.072 35.1 10.692 35.1ZM16.7839 35V32.23C16.7839 31.9433 16.6939 31.71 16.5139 31.53C16.3339 31.35 16.1006 31.26 15.8139 31.26C15.6272 31.26 15.4606 31.3 15.3139 31.38C15.1672 31.46 15.0506 31.5733 14.9639 31.72C14.8839 31.8667 14.8439 32.0367 14.8439 32.23L14.3339 31.97C14.3339 31.59 14.4139 31.26 14.5739 30.98C14.7339 30.6933 14.9539 30.47 15.2339 30.31C15.5206 30.15 15.8472 30.07 16.2139 30.07C16.5806 30.07 16.9039 30.15 17.1839 30.31C17.4706 30.47 17.6939 30.69 17.8539 30.97C18.0139 31.25 18.0939 31.5733 18.0939 31.94V35H16.7839ZM13.5339 35V27.77H14.8439V35H13.5339ZM21.6591 35.1C21.1525 35.1 20.7025 34.9933 20.3091 34.78C19.9158 34.56 19.6025 34.26 19.3691 33.88C19.1425 33.5 19.0291 33.0667 19.0291 32.58C19.0291 32.1 19.1391 31.6733 19.3591 31.3C19.5858 30.92 19.8925 30.62 20.2791 30.4C20.6658 30.1733 21.0958 30.06 21.5691 30.06C22.0358 30.06 22.4458 30.1667 22.7991 30.38C23.1591 30.5867 23.4391 30.8733 23.6391 31.24C23.8458 31.6 23.9491 32.01 23.9491 32.47C23.9491 32.5567 23.9425 32.6467 23.9291 32.74C23.9225 32.8267 23.9058 32.9267 23.8791 33.04L19.8191 33.05V32.07L23.2691 32.06L22.7391 32.47C22.7258 32.1833 22.6725 31.9433 22.5791 31.75C22.4925 31.5567 22.3625 31.41 22.1891 31.31C22.0225 31.2033 21.8158 31.15 21.5691 31.15C21.3091 31.15 21.0825 31.21 20.8891 31.33C20.6958 31.4433 20.5458 31.6067 20.4391 31.82C20.3391 32.0267 20.2891 32.2733 20.2891 32.56C20.2891 32.8533 20.3425 33.11 20.4491 33.33C20.5625 33.5433 20.7225 33.71 20.9291 33.83C21.1358 33.9433 21.3758 34 21.6491 34C21.8958 34 22.1191 33.96 22.3191 33.88C22.5191 33.7933 22.6925 33.6667 22.8391 33.5L23.6091 34.27C23.3758 34.5433 23.0891 34.75 22.7491 34.89C22.4158 35.03 22.0525 35.1 21.6591 35.1ZM26.9993 35.1C26.5526 35.1 26.1526 34.99 25.7993 34.77C25.446 34.55 25.166 34.25 24.9593 33.87C24.7593 33.49 24.6593 33.0633 24.6593 32.59C24.6593 32.11 24.7593 31.68 24.9593 31.3C25.166 30.92 25.4426 30.62 25.7893 30.4C26.1426 30.18 26.546 30.07 26.9993 30.07C27.346 30.07 27.656 30.14 27.9293 30.28C28.2093 30.42 28.4326 30.6167 28.5993 30.87C28.7726 31.1167 28.866 31.3967 28.8793 31.71V33.43C28.866 33.7433 28.776 34.0267 28.6093 34.28C28.4426 34.5333 28.2193 34.7333 27.9393 34.88C27.6593 35.0267 27.346 35.1 26.9993 35.1ZM27.2193 33.89C27.466 33.89 27.6793 33.8367 27.8593 33.73C28.046 33.6167 28.1893 33.4633 28.2893 33.27C28.396 33.07 28.4493 32.84 28.4493 32.58C28.4493 32.3267 28.396 32.1033 28.2893 31.91C28.1893 31.71 28.046 31.5567 27.8593 31.45C27.6793 31.3367 27.4693 31.28 27.2293 31.28C26.9826 31.28 26.766 31.3367 26.5793 31.45C26.3993 31.5633 26.256 31.7167 26.1493 31.91C26.0493 32.1033 25.9993 32.3267 25.9993 32.58C25.9993 32.84 26.0493 33.07 26.1493 33.27C26.256 33.4633 26.4026 33.6167 26.5893 33.73C26.776 33.8367 26.986 33.89 27.2193 33.89ZM29.6793 35H28.3793V33.7L28.5893 32.52L28.3693 31.36V27.77H29.6793V35ZM33.0982 35.1C32.6715 35.1 32.2915 35.01 31.9582 34.83C31.6315 34.65 31.3749 34.4 31.1882 34.08C31.0015 33.76 30.9082 33.39 30.9082 32.97V30.17H32.2282V32.94C32.2282 33.14 32.2615 33.3133 32.3282 33.46C32.3949 33.6 32.4949 33.7067 32.6282 33.78C32.7615 33.8533 32.9182 33.89 33.0982 33.89C33.3715 33.89 33.5849 33.8067 33.7382 33.64C33.8915 33.4733 33.9682 33.24 33.9682 32.94V30.17H35.2782V32.97C35.2782 33.3967 35.1849 33.77 34.9982 34.09C34.8182 34.41 34.5615 34.66 34.2282 34.84C33.9015 35.0133 33.5249 35.1 33.0982 35.1ZM36.5214 35V27.77H37.8314V35H36.5214ZM41.5021 35.1C40.9954 35.1 40.5454 34.9933 40.1521 34.78C39.7588 34.56 39.4454 34.26 39.2121 33.88C38.9854 33.5 38.8721 33.0667 38.8721 32.58C38.8721 32.1 38.9821 31.6733 39.2021 31.3C39.4288 30.92 39.7354 30.62 40.1221 30.4C40.5088 30.1733 40.9388 30.06 41.4121 30.06C41.8788 30.06 42.2888 30.1667 42.6421 30.38C43.0021 30.5867 43.2821 30.8733 43.4821 31.24C43.6888 31.6 43.7921 32.01 43.7921 32.47C43.7921 32.5567 43.7854 32.6467 43.7721 32.74C43.7654 32.8267 43.7488 32.9267 43.7221 33.04L39.6621 33.05V32.07L43.1121 32.06L42.5821 32.47C42.5688 32.1833 42.5154 31.9433 42.4221 31.75C42.3354 31.5567 42.2054 31.41 42.0321 31.31C41.8654 31.2033 41.6588 31.15 41.4121 31.15C41.1521 31.15 40.9254 31.21 40.7321 31.33C40.5388 31.4433 40.3888 31.6067 40.2821 31.82C40.1821 32.0267 40.1321 32.2733 40.1321 32.56C40.1321 32.8533 40.1854 33.11 40.2921 33.33C40.4054 33.5433 40.5654 33.71 40.7721 33.83C40.9788 33.9433 41.2188 34 41.4921 34C41.7388 34 41.9621 33.96 42.1621 33.88C42.3621 33.7933 42.5354 33.6667 42.6821 33.5L43.4521 34.27C43.2188 34.5433 42.9321 34.75 42.5921 34.89C42.2588 35.03 41.8954 35.1 41.5021 35.1Z" fill="#85736D"/>
<path d="M30 22H16C14.8954 22 14 21.1046 14 20V6C14 4.89543 14.8954 4 16 4H18V2H20V4H26V2H28V4H30C31.1046 4 32 4.89543 32 6V20C32 21.1046 31.1046 22 30 22ZM16 10V20H30V10H16ZM16 6V8H30V6H16ZM28 18H26V16H28V18ZM24 18H22V16H24V18ZM20 18H18V16H20V18ZM28 14H26V12H28V14ZM24 14H22V12H24V14ZM20 14H18V12H20V14Z" fill="#2E3A59"/>
</svg>
