<svg width="32" height="32" viewBox="0 0 32 32" fill="none" xmlns="http://www.w3.org/2000/svg">
<path d="M16 29.3335C13.9841 29.3391 11.9936 28.883 10.1813 28.0001C9.51806 27.6775 8.88257 27.3006 8.28133 26.8734L8.09867 26.7401C6.44509 25.5196 5.09317 23.9364 4.14667 22.1121C3.16765 20.2239 2.65988 18.127 2.6666 16.0001C2.6666 8.63628 8.6362 2.66675 16 2.66675C23.3638 2.66675 29.3334 8.63628 29.3334 16.0001C29.3401 18.1259 28.8328 20.2219 27.8547 22.1094C26.9095 23.9327 25.5594 25.5153 23.908 26.7361C23.285 27.1921 22.6239 27.5936 21.932 27.9361L21.8253 27.9894C20.0119 28.877 18.019 29.3368 16 29.3335ZM16 22.6667C14.002 22.6628 12.1702 23.7788 11.2573 25.5561C14.2459 27.0363 17.7541 27.0363 20.7427 25.5561V25.5494C19.8287 23.7741 17.9968 22.6606 16 22.6667ZM16 20.0001C18.8882 20.0039 21.5512 21.5602 22.972 24.0747L22.992 24.0574L23.0107 24.0414L22.988 24.0614L22.9747 24.0721C26.3467 21.1589 27.5524 16.4565 25.9982 12.2802C24.444 8.10392 20.4575 5.33384 16.0013 5.33384C11.5452 5.33384 7.55866 8.10392 6.00447 12.2802C4.45028 16.4565 5.656 21.1589 9.028 24.0721C10.4497 21.5588 13.1125 20.0036 16 20.0001ZM16 18.6667C13.0545 18.6667 10.6667 16.2789 10.6667 13.3334C10.6667 10.3879 13.0545 8.00008 16 8.00008C18.9455 8.00008 21.3333 10.3879 21.3333 13.3334C21.3333 14.7479 20.7714 16.1045 19.7712 17.1047C18.771 18.1048 17.4145 18.6667 16 18.6667ZM16 10.6667C14.5272 10.6667 13.3333 11.8607 13.3333 13.3334C13.3333 14.8062 14.5272 16.0001 16 16.0001C17.4728 16.0001 18.6667 14.8062 18.6667 13.3334C18.6667 11.8607 17.4728 10.6667 16 10.6667Z" fill="#2E3A59"/>
</svg>
